<?xml version="1.0" encoding="utf-8"?>
<!-- Generator: Adobe Illustrator 19.1.0, SVG Export Plug-In . SVG Version: 6.00 Build 0)  -->
<!DOCTYPE svg PUBLIC "-//W3C//DTD SVG 1.1//EN" "http://www.w3.org/Graphics/SVG/1.1/DTD/svg11.dtd">
<svg version="1.1" id="Layer_1" xmlns="http://www.w3.org/2000/svg" xmlns:xlink="http://www.w3.org/1999/xlink" x="0px" y="0px"
	 viewBox="0 0 72 60" enable-background="new 0 0 72 60" xml:space="preserve">
<path fill="#FFFFFF" d="M64.8,14.5H7.2c-4,0-7.2-3.3-7.2-7.2v0C0,3.3,3.3,0,7.2,0h57.5c4,0,7.2,3.3,7.2,7.2v0
	C72,11.2,68.7,14.5,64.8,14.5z"/>
<path fill="#FFFFFF" d="M64.8,37.2H7.2C3.3,37.2,0,34,0,30v0c0-4,3.3-7.2,7.2-7.2h57.5c4,0,7.2,3.3,7.2,7.2v0
	C72,34,68.7,37.2,64.8,37.2z"/>
<path fill="#FFFFFF" d="M64.8,60H7.2c-4,0-7.2-3.3-7.2-7.2v0c0-4,3.3-7.2,7.2-7.2h57.5c4,0,7.2,3.3,7.2,7.2v0
	C72,56.7,68.7,60,64.8,60z"/>
</svg>
