<?xml version="1.0" encoding="utf-8"?>
<!-- Generator: Adobe Illustrator 19.1.0, SVG Export Plug-In . SVG Version: 6.00 Build 0)  -->
<!DOCTYPE svg PUBLIC "-//W3C//DTD SVG 1.1//EN" "http://www.w3.org/Graphics/SVG/1.1/DTD/svg11.dtd">
<svg version="1.1" id="Layer_1" xmlns="http://www.w3.org/2000/svg" xmlns:xlink="http://www.w3.org/1999/xlink" x="0px" y="0px"
	 viewBox="0 0 59 50.9" enable-background="new 0 0 59 50.9" xml:space="preserve">
<path fill="#FFFFFF" d="M56.3,12.8L11.8,49.2c-3.1,2.5-7.7,2.1-10.2-1l0,0c-2.5-3.1-2.1-7.7,1-10.2L47.2,1.6c3.1-2.5,7.7-2.1,10.2,1
	l0,0C59.9,5.7,59.4,10.3,56.3,12.8z"/>
<path fill="#FFFFFF" d="M2.6,12.8l44.5,36.4c3.1,2.5,7.7,2.1,10.2-1l0,0c2.5-3.1,2.1-7.7-1-10.2L11.8,1.6c-3.1-2.5-7.7-2.1-10.2,1
	l0,0C-0.9,5.7-0.4,10.3,2.6,12.8z"/>
</svg>
