<?xml version="1.0" encoding="utf-8"?>
<!-- Generator: Adobe Illustrator 19.1.0, SVG Export Plug-In . SVG Version: 6.00 Build 0)  -->
<!DOCTYPE svg PUBLIC "-//W3C//DTD SVG 1.1//EN" "http://www.w3.org/Graphics/SVG/1.1/DTD/svg11.dtd">
<svg version="1.1" id="Layer_1" xmlns="http://www.w3.org/2000/svg" xmlns:xlink="http://www.w3.org/1999/xlink" x="0px" y="0px"
	 viewBox="0 0 144 144" style="enable-background:new 0 0 144 144;" xml:space="preserve">
<style type="text/css">
	.st0{fill:none;stroke:#91A995;stroke-width:3;stroke-linecap:round;stroke-linejoin:round;stroke-miterlimit:10;}
	.st1{fill:#91A995;}
</style>
<path class="st0" d="M48.7,45.7h74.1c0,0,19.2,3.1,19.2,25.7s-25.7,19.9-25.7,19.9s-3.8,11.2-7.2,13.7H62.6c0,0-3.8-3.8-6.5-12.8
	S48.7,55.5,48.7,45.7z"/>
<path class="st0" d="M122.6,55.5c0,0,10.7,2.5,9.9,15.2c-0.9,12.8-14.1,11.4-14.1,11.4S120.5,71.2,122.6,55.5z"/>
<path class="st0" d="M70.4,1.7c0,0,12.5,9.5,0,19.1c0,0-7.8,7.6,0.9,17.5"/>
<path class="st0" d="M86.4,1.7c0,0,12.5,9.5,0,19.1c0,0-7.8,7.6,0.9,17.5"/>
<path class="st0" d="M100.4,1.7c0,0,12.5,9.5,0,19.1c0,0-7.8,7.6,0.9,17.5"/>
<g>
	<g>
		<path class="st1" d="M29,68.1l-4.2,8.5c0,0.1-0.1,0.1-0.1,0.2c-0.2,0.5-1.8,4.6-0.6,8.2c-0.2,0.2-0.5,0.3-0.8,0.5
			c-0.1,0-0.1,0.1-0.2,0.1c0,0-1.7,0.7-4,0.7c-3.4,0-6.4-1.5-8.9-4.5c-0.6-0.7-0.6-1.2-0.5-1.6C10.8,76.3,21.7,70.7,29,68.1 M30,65
			c-0.9,0-1.7,0.2-1.7,0.2S0.6,75,8,83.7c3.8,4.4,8,5.5,11.2,5.5c3.1,0,5.2-1,5.2-1s3.8-1.4,2.7-4c-1.1-2.6,0.4-6.3,0.4-6.3l4.7-9.5
			C33.6,65.5,31.6,65,30,65L30,65z"/>
	</g>
	<g>
		<path class="st1" d="M3.3,89.4c0.6,1.5,1.5,3,2.7,4.2c1.7,1.8,4.8,3.9,9.6,3.9c4,0,8.5-1.5,13.2-4.5c0.4,0.7,0.8,1.3,1.2,1.8
			c0.2,0.2,0.4,0.5,0.7,0.7c0.3,0.3,0.8,0.8,1,1.1c-0.1,0.2-0.4,0.6-1.2,1.3c-0.1,0.1-0.2,0.1-0.2,0.2c-0.1,0.1-2.4,2.3-3.8,4.1
			c-1.6,2.2-5.3,5.9-11,5.9c-2.8,0-5.9-0.9-9.2-2.8C5.1,103.2,1.8,95.7,3.3,89.4 M4.3,82.9c-0.8,0-1.7,0.8-1.7,0.8
			c-6.8,9.4,1.3,23.9,1.3,23.9c4.4,2.6,8.2,3.6,11.4,3.6c8,0,12.5-5.9,13.4-7.1c1.2-1.6,3.5-3.8,3.5-3.8c4.7-3.7,1.3-5.9,0-7.4
			c-0.4-0.5-0.7-1-1-1.6c-0.4-0.9-1.3-1.4-2.3-1.4c-0.5,0-1,0.1-1.4,0.4c-4.9,3.2-8.9,4.3-12,4.3c-7,0-10-5.7-9.9-8.8
			C5.7,83.5,5,82.9,4.3,82.9L4.3,82.9z"/>
	</g>
	<g>
		<path class="st1" d="M40.3,101.1c0,0,0.1,0,0.1,0.1c1.7,1.5,3.8,3.5,6.1,5.7c-0.1,1.3-0.3,3.7-1.4,7c-1.4,4.6-4.7,11.8-12,20.3
			c-0.5,0.4-2.3,1.3-4.8,1.3c-3.9,0-10-2.2-17.3-12.8c-0.6-1.3-1.2-2.7-1.7-3.9c1.2,0.5,3.1,1,5.6,1c3.7,0,7.6-1.1,11.8-3.2
			c8.6-4.4,12.1-8.5,13.1-15.1C40,101.1,40.3,101.1,40.3,101.1 M40.3,98.1c-1.5,0-3,1.1-3.3,2.8c-0.8,5.5-3.6,8.8-11.5,12.9
			c-4.3,2.2-7.8,2.9-10.4,2.9c-3.7,0-5.6-1.3-5.6-1.3c-1.5-1.3-2.5-1.8-3.2-1.8c-2.8,0,2.2,10.5,2.2,10.5c8,11.6,15,14.3,19.9,14.3
			c4.3,0,6.8-2.1,6.8-2.1c15.4-17.9,14.3-30.8,14.3-30.8c-3.1-3-5.4-5.1-7.1-6.7C41.8,98.4,41,98.1,40.3,98.1L40.3,98.1z"/>
	</g>
	<g>
		<path class="st1" d="M55.5,113.5c3.1,2.2,4.2,3.3,4.2,3.4c0,0,2,3.8,3.2,17.4c0.2,2.1-0.2,3.6-1.1,4.6c-1.3,1.4-3.9,2.2-7.6,2.2
			c-3.7,0-7.6-0.7-10.2-1.4c0,0,0.1-0.1,0.1-0.1C48.5,135.6,55.4,122.5,55.5,113.5 M53.8,109.2c-2.1,0-1.3,4.2-1.3,4.2
			c-0.1,8-6.5,20.4-10.4,23.8c-3.9,3.4-2.2,4.4-2.2,4.4s7.4,2.4,14.3,2.4c6.4,0,12.4-2.1,11.8-10c-1.4-16.5-4-19.2-4-19.2
			s-1.4-1.5-6-4.7C55,109.5,54.3,109.2,53.8,109.2L53.8,109.2z"/>
	</g>
	<g>
		<path class="st1" d="M78.8,117.8c0.3,0.2,0.8,1,1,1.9c0.1,0.2,0,0.2,0.1,0.3c0.2,1.3-1.1,4.9-8.5,9.1c-0.4-1.5-1-3.9-1.5-7.8
			c0-0.2-0.1-0.4-0.2-0.7c-0.1-0.3-0.2-0.7-0.2-1c0.2,0,0.5,0,0.8,0.1c0.2,0,0.6,0.1,1.1,0.1c1.4,0,3.7-0.3,6.9-1.8
			C78.7,117.8,78.8,117.8,78.8,117.8 M78.9,114.8c-0.5,0-1.1,0.1-1.7,0.4c-2.9,1.3-4.8,1.5-5.7,1.5c-0.4,0-0.6,0-0.6,0
			c-0.5-0.1-1-0.1-1.4-0.1c-4.5,0-2.5,5.1-2.5,5.1c1.5,10.8,3.1,11.5,3.1,11.5c15.3-7.4,12.8-14.2,12.8-14.2S81.8,114.8,78.9,114.8
			L78.9,114.8z"/>
	</g>
</g>
</svg>
