<?xml version="1.0" encoding="utf-8"?>
<!-- Generator: Adobe Illustrator 19.1.0, SVG Export Plug-In . SVG Version: 6.00 Build 0)  -->
<!DOCTYPE svg PUBLIC "-//W3C//DTD SVG 1.1//EN" "http://www.w3.org/Graphics/SVG/1.1/DTD/svg11.dtd">
<svg version="1.1" id="Layer_1" xmlns="http://www.w3.org/2000/svg" xmlns:xlink="http://www.w3.org/1999/xlink" x="0px" y="0px"
	 viewBox="0 0 144 144" style="enable-background:new 0 0 144 144;" xml:space="preserve">
<style type="text/css">
	.st0{fill:#91A995;}
	.st1{fill:#FFFFFF;stroke:#91A995;stroke-width:3;stroke-linecap:round;stroke-linejoin:round;stroke-miterlimit:10;}
	.st2{fill:none;stroke:#91A995;stroke-width:3;stroke-linecap:round;stroke-linejoin:round;stroke-miterlimit:10;}
</style>
<g>
	<path class="st0" d="M68.6,102.4c2.6,1.5,5.4,2.2,8.3,2.2c3.6,0,6.6-1.2,8.5-2.1c2.5,1.5,5.1,2.3,7.9,2.3c3.5,0,6.4-1.2,8.2-2.3
		c2.7,1.6,5.5,2.4,8.4,2.4c1.1,0,2.1-0.1,3.1-0.3L99.6,141H38l-13.8-36.9c1.3,0.3,2.6,0.4,3.9,0.4c3.6,0,6.2-1.1,7.9-2.1
		c2.2,1.3,4.7,1.9,7.3,1.9c3.5,0,6.5-1.1,8.4-2c2.4,1.5,5,2.3,7.9,2.3C63.4,104.7,66.6,103.4,68.6,102.4 M118.1,98.9
		c0,0-3.4,3-8.3,3c-2.5,0-5.3-0.7-8.3-3c0,0-3.5,2.8-8.2,2.8c-2.4,0-5-0.7-7.8-2.8c0,0-3.6,2.7-8.6,2.7c-2.5,0-5.3-0.7-8.3-2.7
		c0,0-4,2.8-8.9,2.8c-2.5,0-5.1-0.7-7.6-2.8c0,0-3.9,2.6-8.6,2.6c-2.4,0-4.9-0.6-7.4-2.6c0,0-2.9,2.7-7.9,2.7c-2.5,0-5.6-0.7-9-2.7
		L35.9,144h65.8L118.1,98.9L118.1,98.9z"/>
</g>
<g>
	<path class="st0" d="M75.3,36.9c1.5,2.8,4,5.6,8.2,7.1c2.3,0.8,4.1,1.9,5.4,3.2c0.7,0.7,0.7,1.5,0.6,1.9c-0.1,0.7-0.5,1.4-1.1,1.7
		l-0.1,0.1c-2.4,1.5-16.8,9.3-29.4,16c-0.8,0.4-1.5,0.9-2.2,1.3c-1.7,1.1-7.4,4.7-12.1,4.7c-2,0-3.4-0.7-4.4-2.1
		c-1.9-2.8-0.6-9.1,8.6-18.1c0.8-0.8,1.8-1.5,2.8-2.2c2.8-1.8,8.5-5.1,14.4-7.6c0,0,0.1,0,0.1,0c0.8-0.3,3.7-1.3,6.6-3.5
		C73.7,38.5,74.6,37.7,75.3,36.9 M76.1,26.9L76.1,26.9L76.1,26.9z M76.1,26.9c0,0,0,0.3,0,0.8C76.1,27.4,76.1,27.2,76.1,26.9
		L76.1,26.9z M76.1,27.7c-0.5,8.6-9.7,11.9-10.9,12.3c-0.1,0-0.2,0.1-0.3,0.1c-6.1,2.6-12,6.1-14.8,7.8c-1.2,0.7-2.3,1.6-3.3,2.6
		c-4,4-13.8,14.8-8.9,21.9c1.7,2.5,4.2,3.4,6.8,3.4c5.4,0,11.6-3.7,13.7-5.2c0.6-0.4,1.3-0.8,2-1.2c5.2-2.8,26.4-14.1,29.6-16.1
		c0,0,0.1,0,0.1-0.1c2.9-1.8,3.3-5.8,1-8.3c-1.3-1.4-3.4-2.8-6.5-3.9C76.7,38.3,76.1,30.2,76.1,27.7L76.1,27.7z"/>
</g>
<g>
	<path class="st0" d="M101.6,56.8c1,0,1.7,0.3,2.3,0.8c1.5,1.4,1.5,2.4,1.4,2.8c-0.1,2-2.3,4.3-3.1,4.9c-0.1,0.1-0.2,0.1-0.2,0.2
		c-9.2,8.9-19.4,14.2-19.5,14.3c-0.2,0.1-0.3,0.2-0.5,0.3C66.2,92.6,48.3,94,41.4,94c-1.8,0-2.9-0.1-2.9-0.1c-0.1,0-0.2,0-0.3,0
		c-0.1,0-0.1,0-0.2,0c0,0-0.3,0-0.7,0c-2.9,0-6.7-0.6-8-2.3c-0.2-0.3-0.9-1.1-0.3-3.3c1.5-5.9,9.3-6.9,19.3-7.7
		c2-0.2,3.9-0.3,5.6-0.5c9.1-1.2,32-14.3,34.5-15.8c0.2-0.1,0.4-0.3,0.6-0.4C90.9,61.9,97.3,56.8,101.6,56.8 M101.6,53.8
		c-6.5,0-14.7,7.7-14.7,7.7S62.3,75.8,53.5,77c-8.7,1.2-24.7,0.2-27.4,10.5c-2.3,8.8,8,9.4,11.2,9.4c0.6,0,0.9,0,0.9,0
		s1.2,0.1,3.2,0.1c7.3,0,25.9-1.4,42.6-14.6c0,0,10.5-5.4,20.2-14.8c0,0,8.1-6.4,1.8-12.2C104.7,54.3,103.2,53.8,101.6,53.8
		L101.6,53.8z"/>
</g>
<g>
	<path class="st0" d="M109.1,75.8L109.1,75.8c1.4,0,2.6,1.5,3.5,2.7c0.7,1.1,0.6,1.9,0.4,2.4c-1.5,4.4-12.7,9.6-20.1,12
		c-0.6,0.2-5.3,1.2-10.6,1.4c4.7-2.3,10.5-5.5,15.5-9c2.4-1.7,4.6-3.8,6.8-6.3C106.1,76.9,107.8,75.8,109.1,75.8 M109.1,72.8
		c-2.8,0-5.3,2.3-6.9,4.1c-1.8,2.2-3.9,4.2-6.2,5.8c-7.4,5.2-16.5,9.6-21.2,11.7c-1.1,0.5-0.9,2.1,0.3,2.3c2,0.4,4.1,0.5,6.2,0.5
		c6.5,0,12.4-1.5,12.4-1.5s28.3-8.7,21.4-19C113,73.8,111,72.8,109.1,72.8L109.1,72.8z"/>
</g>
<ellipse class="st1" cx="70.5" cy="38.4" rx="11.5" ry="10.7"/>
<path class="st2" d="M50.3,4.3c0,0,19.1,3.4,20.2,21.8"/>
</svg>
