<?xml version="1.0" encoding="utf-8"?>
<!-- Generator: Adobe Illustrator 19.1.0, SVG Export Plug-In . SVG Version: 6.00 Build 0)  -->
<!DOCTYPE svg PUBLIC "-//W3C//DTD SVG 1.1//EN" "http://www.w3.org/Graphics/SVG/1.1/DTD/svg11.dtd">
<svg version="1.1" id="Layer_1" xmlns="http://www.w3.org/2000/svg" xmlns:xlink="http://www.w3.org/1999/xlink" x="0px" y="0px"
	 viewBox="0 0 144 144" style="enable-background:new 0 0 144 144;" xml:space="preserve">
<style type="text/css">
	.st0{fill:none;stroke:#91A995;stroke-width:3;stroke-linecap:round;stroke-linejoin:round;stroke-miterlimit:10;}
</style>
<path class="st0" d="M6,111.6c0,0,28.5-19.3,54.8-6.3c0,0,22.6,9.8,34.7,0.8c6-4.4,7-13,2.3-18.7c-5.6-6.7-19.4-13.6-53.2-10.8
	c-0.7,0.1-1.3,0.2-1.9,0.3c-5.4,1.3-29.6,8-39,28.2c-0.6,1.3-1.1,2.7-1.2,4.2C2.3,111.4,2.7,113.5,6,111.6z"/>
<line class="st0" x1="69.6" y1="82.8" x2="53.1" y2="96.6"/>
<line class="st0" x1="77.5" y1="85" x2="61" y2="98.8"/>
<line class="st0" x1="85.4" y1="87.3" x2="68.9" y2="101.1"/>
<path class="st0" d="M101,96.6v20.1c0,0.3-0.1,0.6-0.2,0.9c-1.5,2.8-11.2,17.2-48.7,1c-0.1,0-0.1-0.1-0.2-0.1
	c-1.5-0.4-19.7-5.1-39.4,7.3c-0.1,0.1-0.2,0.1-0.3,0.2c-0.7,0.6-4.3,3.7-8.1,3.6c-1,0-1.7-0.9-1.7-1.9l0.2-16.1"/>
<ellipse transform="matrix(0.9634 -0.2681 0.2681 0.9634 -23.3614 11.8723)" class="st0" cx="31.8" cy="91.5" rx="6.9" ry="3.2"/>
<path class="st0" d="M79.6,18.9h60.9c0,0,12.2,60.1-30.5,60.1S79.6,18.9,79.6,18.9z"/>
<line class="st0" x1="110.1" y1="79" x2="110.1" y2="138"/>
<line class="st0" x1="86" y1="138" x2="133.9" y2="138"/>
<line class="st0" x1="78.8" y1="45.6" x2="141.5" y2="45.6"/>
</svg>
