<?xml version="1.0" encoding="utf-8"?>
<!-- Generator: Adobe Illustrator 19.1.0, SVG Export Plug-In . SVG Version: 6.00 Build 0)  -->
<!DOCTYPE svg PUBLIC "-//W3C//DTD SVG 1.1//EN" "http://www.w3.org/Graphics/SVG/1.1/DTD/svg11.dtd">
<svg version="1.1" id="Layer_1" xmlns="http://www.w3.org/2000/svg" xmlns:xlink="http://www.w3.org/1999/xlink" x="0px" y="0px"
	 viewBox="0 0 144 144" enable-background="new 0 0 144 144" xml:space="preserve">
<g id="_x31_gPKrL.tif_2_">
	<g>
		<path fill="none" stroke="#91A995" stroke-width="3" stroke-miterlimit="10" d="M1.6,91.4C0,75.5,6.7,68.9,11.2,63.5
			C27.8,43.9,45.4,25.2,62.5,6c3.2-3.6,6.5-4.8,11.1-3.8C94,6.9,114.4,11.4,134.7,16c8,1.8,9.4,5.8,4.1,11.8
			c-17.9,20.7-35.9,41.3-53.7,62c-2.9,3.4-6,4.3-10.2,3c-7.7-2.4-15.5-4.5-23.2-6.7c-9.2-2.6-18.3-5.3-27.5-7.8
			c-6.4-1.7-9.7-0.3-11.1,4.6c-2.6,8.7,1.8,16.9,10.5,19.5c17.6,5.2,35.2,10.2,52.6,15.7c4.1,1.3,6.2,0.3,8.8-2.8
			c13.3-16.3,26.8-32.6,40.4-48.7c3.1-3.7,4.4-5.8,4.4-12.2c0-4.9,3-8,5.5-10c1.6-1.2,3.9-0.4,4.3,1.5c0.4,2,0.7,4.9,0.9,10
			c0.2,5.2-0.5,9.3-3.5,12.9C120.4,88.8,103.7,109,87,129.1c-1.4,1.7-3.8,2.4-5.9,1.8c-11.4-3.5-45.6-14.1-61.6-18.8
			C12.1,110,2.9,104.3,1.6,91.4z M97.4,42.7c3.2,0.8,5.9,0.4,8.1-1.9c1-1,1.5-1.5,2.2-2.2c2.5-2.5,2.5-5.2-3-6.6
			C96,29.7,80.5,25.8,72,23.5c-5.7-1.6-9.4,0.3-12.7,4.7c-2.4,3.1-1.2,4.6,1.9,5.5c3,0.8,6,1.5,9,2.2C79.1,38,89,40.6,97.4,42.7z"/>
	</g>
</g>
</svg>
