<?xml version="1.0" encoding="utf-8"?>
<!-- Generator: Adobe Illustrator 19.1.0, SVG Export Plug-In . SVG Version: 6.00 Build 0)  -->
<!DOCTYPE svg PUBLIC "-//W3C//DTD SVG 1.1//EN" "http://www.w3.org/Graphics/SVG/1.1/DTD/svg11.dtd">
<svg version="1.1" id="Layer_1" xmlns="http://www.w3.org/2000/svg" xmlns:xlink="http://www.w3.org/1999/xlink" x="0px" y="0px"
	 viewBox="0 0 144 144" enable-background="new 0 0 144 144" xml:space="preserve">
<path fill="none" stroke="#91A995" stroke-width="3" stroke-miterlimit="10" d="M142,43.5c0,1.6,0,3.1,0,4.7c-0.1,0.5-0.3,1-0.3,1.5
	c-0.4,5.9-2.1,11.4-4.8,16.6c-4.2,8-10.4,14.1-18.4,18.4c-1,0.5-1.2,1-0.8,2c2.2,5.7,4.2,11.5,6.3,17.3c0.5,1.5,1.1,2.9,1.7,4.7
	c-0.6-0.4-0.8-0.5-1.1-0.7c-8.8-5.9-17.5-11.8-26.3-17.6c-0.7-0.5-1.7-0.7-2.5-0.7c-11.3,0-22.7,0-34-0.1c-2.9,0-5.8-0.3-8.6-0.7
	C33.1,85.6,17.9,68.4,17,48.1c-0.5-11,2.6-21,9.6-29.6c8.2-10.2,19-15.8,32.1-16.2c9.9-0.3,19.8-0.2,29.7-0.1
	c5.8,0.1,11.6-0.1,17.3,0.7c17.7,2.5,32.5,17.4,35.4,35.1C141.5,39.8,141.7,41.7,142,43.5z M1.1,58.7C1.2,76.9,9.6,90.5,25,100
	c-3.4,9.5-6.8,18.9-10.3,28.4c0.8-0.2,1.3-0.5,1.8-0.8c10.4-7,20.8-13.9,31.2-20.9c1.1-0.8,2.2-1.1,3.6-1.1c10.5,0,20.9,0,31.4,0
	c4.8,0,9.5-0.2,14.2-1.5c2.5-0.7,4.9-1.6,7.7-2.6c-2.8-1.9-5.2-3.4-7.6-5.1c-1.1-0.8-2.1-1-3.4-1c-8.6,0-17.2,0.1-25.8,0
	c-4.2,0-8.5,0.1-12.6-0.4c-10.4-1.1-19.6-5.1-27.3-12.2C14.4,70.4,9.2,55,12.2,37c0.6-3.8,2-7.5,3-11.2C6.1,34.9,1.1,45.8,1.1,58.7z
	 M81.2,53.1v-1.9c0-1.3,0.3-2.3,0.8-3c0.5-0.8,1.8-1.9,3.8-3.4c2.9-2.1,4.9-4,6-5.7c1-1.7,1.6-3.7,1.6-6c0-3.5-1.3-6.2-3.8-8.3
	c-2.5-2.1-6-3.1-10.3-3.1C74,21.7,69,23,64.3,25.6l3.4,6.9c4-2.1,7.6-3.1,10.7-3.1c1.8,0,3.2,0.4,4.2,1.1c1,0.7,1.5,1.7,1.5,3.1
	c0,1.2-0.4,2.3-1.1,3.3c-0.7,1-2.2,2.3-4.4,3.8c-2.3,1.7-3.9,3.3-4.7,4.7c-0.9,1.5-1.3,3.2-1.3,5.2v2.3H81.2z M73.3,67.8
	c1,0.9,2.3,1.4,4.1,1.4c1.7,0,3.1-0.5,4-1.4c1-1,1.4-2.3,1.4-3.9c0-1.7-0.5-3-1.4-4c-1-0.9-2.3-1.4-4-1.4c-1.8,0-3.2,0.5-4.1,1.4
	c-0.9,0.9-1.4,2.2-1.4,4C71.8,65.5,72.3,66.8,73.3,67.8z"/>
</svg>
