<?xml version="1.0" encoding="utf-8"?>
<!-- Generator: Adobe Illustrator 19.1.0, SVG Export Plug-In . SVG Version: 6.00 Build 0)  -->
<!DOCTYPE svg PUBLIC "-//W3C//DTD SVG 1.1//EN" "http://www.w3.org/Graphics/SVG/1.1/DTD/svg11.dtd">
<svg version="1.1" id="Layer_1" xmlns="http://www.w3.org/2000/svg" xmlns:xlink="http://www.w3.org/1999/xlink" x="0px" y="0px"
	 viewBox="0 0 144 144" enable-background="new 0 0 144 144" xml:space="preserve">
<g>
	<g id="_x30_RZmfy.tif_2_">
		<g>
			<g>
				<path fill="#91A995" d="M71.7,27.5l0,3h0c4.2,0,8.4,0.6,12.4,1.9c14.7,4.5,25,16.9,25.5,30.8c0.2,6.2-1.8,12.2-6.2,18.3
					c-1.6,2.2-3.3,4.4-4.9,6.5c-1.5,1.9-3,3.9-4.5,5.9c-4.6,6.3-7,13.3-7.1,21c0,0.4,0,0.8,0,1.1h-3l0-2c0-9,0-18.3,0-27.4
					c0-0.1,0.1-0.2,0.1-0.4c1.8-3.4,3.7-6.8,5.5-10.2l2.2-4c0.2-0.3,0.3-0.7,0.5-1.1l0.3-0.6l2.2-4.4h-4.9c-0.4,0-0.7,0-1.1,0
					c-0.4,0-0.7,0-1.1,0c-0.7,0-1.3,0-1.8,0.1c-1.3,0.1-2.9,0.9-3.7,2.3c-2.6,4.7-5.2,9.7-8.1,15.1c-0.5,1-0.8,2.2-0.8,3.4
					c0,8.3,0,16.7,0,24.8l0,4.3h-3.1l0-3.8c0-8.5,0-16.9,0-25.4c0-0.9-0.1-2-0.6-3c-2.6-4.9-5.3-10-8.3-15.4
					c-0.7-1.2-2.1-2.1-3.4-2.2c-0.6,0-1.2-0.1-1.9-0.1c-0.4,0-0.7,0-1.1,0c-0.4,0-0.8,0-1.2,0h-4.9l2.2,4.3l0.2,0.5
					c0.2,0.3,0.3,0.6,0.5,0.9l2.1,3.8c1.9,3.4,3.8,7,5.7,10.4c0.1,0.2,0.2,0.5,0.2,0.7c0,9,0,18.2,0,27l0,2.1h-3
					c-0.1-8.2-2.5-15.7-7.2-22.2c-1.5-2-3-4-4.5-5.9c-0.6-0.8-1.3-1.6-1.9-2.5c-2.8-3.6-6-8-7.6-13.1c-0.4-1.3-0.7-2.6-1-4
					c-0.1-0.5-0.3-1.1-0.4-1.6v-5.2c0.1-0.2,0.1-0.5,0.2-0.7c0.2-0.8,0.4-1.7,0.5-2.5c0.3-1.6,0.7-3.1,1.2-4.5
					c5.3-13.9,19.7-23.3,35.8-23.3L71.7,27.5 M71.7,27.5c-17,0-32.7,9.7-38.6,25.2c-0.9,2.3-1.2,4.9-1.8,7.3c-0.1,0.3-0.2,0.7-0.3,1
					c0,2,0,4,0,6c0.5,2.1,0.9,4.1,1.6,6.2c1.7,5.2,4.7,9.7,8.1,14.1c2.1,2.7,4.4,5.4,6.4,8.3c4.9,6.8,7,14.3,6.6,22.4
					c0,0.3,0,0.6,0,1c3,0,5.9,0,9,0c0-0.4,0.1-0.8,0.1-1.2c0-10.3,0-20.6,0-30.9c0-0.7-0.2-1.5-0.5-2.1c-2.6-4.8-5.2-9.5-7.8-14.3
					c-0.2-0.4-0.4-0.8-0.6-1.3c0.8,0,1.5,0,2.3,0c0.6,0,1.2,0,1.7,0c0.4,0,0.8,0.4,1,0.7c2.8,5.1,5.5,10.2,8.2,15.4
					c0.3,0.5,0.3,1.1,0.3,1.6c0,10.2,0,20.5,0,30.7c0,0.5,0,0.9,0,1.5c3,0,6,0,9.1,0c0-0.5,0-1,0-1.5c0-10.2,0-20.4,0-30.6
					c0-0.7,0.2-1.4,0.5-2c2.6-5,5.3-10,8-15c0.2-0.4,0.9-0.7,1.4-0.8c0.5,0,1-0.1,1.5-0.1c0.7,0,1.4,0,2.2,0
					c-0.3,0.6-0.5,1.1-0.8,1.5c-2.6,4.7-5.2,9.4-7.7,14.2c-0.3,0.5-0.5,1.1-0.5,1.7c0,10.5,0,21.1,0,31.6c0,0.3,0,0.5,0,0.8
					c3,0,5.9,0,9,0c0-1.3,0-2.7,0-4.1c0.1-7,2.3-13.5,6.5-19.3c3-4.2,6.4-8.2,9.4-12.3c4.4-6.1,7-12.7,6.8-20.2
					C112.1,47.9,101,34.4,85,29.5C80.6,28.2,76.1,27.5,71.7,27.5L71.7,27.5z"/>
			</g>
			<g>
				<path fill="#91A995" d="M85.3,123.3c-9.1,0-18.1,0-27.1,0c0,1.4,0,2.7,0,4c9.1,0,18,0,27.1,0C85.3,125.9,85.3,124.6,85.3,123.3
					L85.3,123.3z M85.4,131.6c-9.1,0-18,0-27.1,0c0,1.4,0,2.6,0,4c9.1,0,18.1,0,27.1,0C85.4,134.2,85.4,132.9,85.4,131.6L85.4,131.6
					z"/>
			</g>
			<g>
				<path fill="#91A995" d="M80.9,139.9c-6.1,0-12.1,0-18.1,0c0,1.4,0,2.7,0,4.1c6,0,12.1,0,18.1,0
					C80.9,142.6,80.9,141.3,80.9,139.9L80.9,139.9z"/>
			</g>
			<g>
				<path fill="#91A995" d="M85.3,123.3c-9.1,0-18.1,0-27.1,0c0,1.4,0,2.7,0,4c9.1,0,18,0,27.1,0C85.3,125.9,85.3,124.6,85.3,123.3
					L85.3,123.3z"/>
			</g>
			<g>
				<path fill="#91A995" d="M85.4,131.6c-9.1,0-18,0-27.1,0c0,1.4,0,2.6,0,4c9.1,0,18.1,0,27.1,0C85.4,134.2,85.4,132.9,85.4,131.6
					L85.4,131.6z"/>
			</g>
		</g>
	</g>
	<polygon fill="#91A995" stroke="#FFFFFF" stroke-width="2" stroke-miterlimit="10" points="27.2,39.4 10.3,28.3 13.7,23.8 30.7,35 
			"/>
	<polygon fill="#91A995" stroke="#FFFFFF" stroke-width="2" stroke-miterlimit="10" points="21.7,63.3 1,61.1 1.7,55.6 22.4,57.8 	
		"/>
	<polygon fill="#91A995" stroke="#FFFFFF" stroke-width="2" stroke-miterlimit="10" points="45.3,25.8 35.2,9.1 40.4,6.4 50.5,23.1 
			"/>
	<polygon fill="#91A995" stroke="#FFFFFF" stroke-width="2" stroke-miterlimit="10" points="116.3,39.5 133.2,28.2 129.6,23.8 
		112.8,35.1 	"/>
	<polygon fill="#91A995" stroke="#FFFFFF" stroke-width="2" stroke-miterlimit="10" points="122.3,63.3 143,61.1 142.3,55.6 
		121.6,57.8 	"/>
	<polygon fill="#91A995" stroke="#FFFFFF" stroke-width="2" stroke-miterlimit="10" points="98.7,25.3 107.7,8 102.3,5.6 93.3,22.9 
			"/>
	
		<rect x="61.5" y="6.6" transform="matrix(1.881859e-03 1 -1 1.881859e-03 80.4991 -61.5006)" fill="#91A995" stroke="#FFFFFF" stroke-width="2" stroke-miterlimit="10" width="19.1" height="6"/>
</g>
</svg>
