<?xml version="1.0" encoding="utf-8"?>
<!-- Generator: Adobe Illustrator 19.1.0, SVG Export Plug-In . SVG Version: 6.00 Build 0)  -->
<!DOCTYPE svg PUBLIC "-//W3C//DTD SVG 1.1//EN" "http://www.w3.org/Graphics/SVG/1.1/DTD/svg11.dtd">
<svg version="1.1" id="Layer_1" xmlns="http://www.w3.org/2000/svg" xmlns:xlink="http://www.w3.org/1999/xlink" x="0px" y="0px"
	 viewBox="0 0 144 144" style="enable-background:new 0 0 144 144;" xml:space="preserve">
<style type="text/css">
	.st0{fill:#FFFFFF;}
	.st1{font-family:'OpenSans';}
	.st2{font-size:43.4669px;}
</style>
<path d="M144,72c-1-33.7-32.2-61-72-61S0,38.3,0,72c0,36.2,42.2,60,72,61c3.3,0.1,7.8,0,13.3-1c0,0-5.7-11.8,3.9-19.3
	c0,0,3.6-3.9,13-2.7c0,0-2.8-12.3,8.6-19.1c0,0,6.8-4.2,16.2-0.2c0,0,2-14.1,16.5-13.3C143.7,77.5,144.1,75,144,72z"/>
<text transform="matrix(1 0 0 1 13.9101 81.2579)" class="st0 st1 st2">BITES</text>
</svg>
