<?xml version="1.0" encoding="utf-8"?>
<!-- Generator: Adobe Illustrator 19.1.0, SVG Export Plug-In . SVG Version: 6.00 Build 0)  -->
<!DOCTYPE svg PUBLIC "-//W3C//DTD SVG 1.1//EN" "http://www.w3.org/Graphics/SVG/1.1/DTD/svg11.dtd">
<svg version="1.1" id="Layer_1" xmlns="http://www.w3.org/2000/svg" xmlns:xlink="http://www.w3.org/1999/xlink" x="0px" y="0px"
	 viewBox="0 0 144 144" style="enable-background:new 0 0 144 144;" xml:space="preserve">
<style type="text/css">
	.st0{fill:#91A995;}
	.st1{fill:none;stroke:#91A995;stroke-width:3;stroke-linecap:round;stroke-linejoin:round;stroke-miterlimit:10;}
</style>
<g>
	<path class="st0" d="M100.6,73c29.4,0,37.7,11.9,40.1,18.2H60.5C62.8,84.9,71.1,73,100.6,73 M100.6,70C67,70,59.1,85.2,57.2,91.5
		c-0.4,1.3,0.6,2.7,2,2.7h82.6c1.4,0,2.4-1.3,2-2.7C142.1,85.2,134.1,70,100.6,70L100.6,70z"/>
</g>
<g>
	<path class="st0" d="M139.5,134.7c-0.1,3.2-0.6,4.8-1,5.3H61.3c-1-1-2.3-2.8-2.2-5.3H139.5 M140.6,131.7H58.2
		c-0.9,0-1.7,0.6-1.9,1.5c-0.9,5,2.1,8.2,3.4,9.4c0.3,0.3,0.8,0.5,1.3,0.5h78c3.2,0,3.6-6.2,3.6-9.4
		C142.5,132.5,141.7,131.7,140.6,131.7L140.6,131.7z"/>
</g>
<g>
	<path class="st0" d="M136.1,113c1.9,0,3.4,1.5,3.4,3.4v3.8c0,1.9-1.5,3.4-3.4,3.4h-71c-1.9,0-3.4-1.5-3.4-3.4v-3.8
		c0-1.9,1.5-3.4,3.4-3.4H136.1 M136.1,110h-71c-3.5,0-6.4,2.9-6.4,6.4v3.8c0,3.5,2.9,6.4,6.4,6.4h71c3.5,0,6.4-2.9,6.4-6.4v-3.8
		C142.5,112.9,139.7,110,136.1,110L136.1,110z"/>
</g>
<path class="st1" d="M61.1,101.1c0,0,6.3,5.8,11.7,0c4.7-5.1,9.9-1.2,11.1-0.2c0.1,0.1,0.2,0.2,0.3,0.3c0.8,0.8,6.3,6.3,12.1-0.1
	c5.4-5.9,9.1-1.5,10.1-0.1c0.2,0.4,0.5,0.7,0.9,0.9c1.7,1.3,6.3,4,11-0.8c5.5-5.6,10-0.8,10.7-0.1c0.1,0.1,0.2,0.2,0.3,0.3
	c1.2,1.1,6.2,5,11.4-0.2"/>
<g>
	<path class="st0" d="M53.5,25.8c0.9,0,1.7,0.4,2.3,1c0.6,0.6,0.9,1.5,0.8,2.3l-7.8,95.2c-0.1,1.6-1.5,2.8-3.1,2.8H14
		c-1.6,0-3-1.2-3.1-2.8L3,29.1c-0.1-0.9,0.2-1.7,0.8-2.4c0.6-0.6,1.4-1,2.3-1H53.5 M53.5,22.8H6.1c-3.6,0-6.4,3-6.1,6.6L8,124.5
		c0.3,3.2,2.9,5.6,6.1,5.6h31.7c3.2,0,5.8-2.4,6.1-5.6l7.8-95.2C59.8,25.8,57,22.8,53.5,22.8L53.5,22.8z"/>
</g>
<path class="st1" d="M22.5,86.5l29-76.1c0,0,4.5-9.2,10.8-3.8L80,18.9"/>
<path class="st1" d="M6,72c0,0,10.1-7.8,17.4-2s30.8-2.1,30.8-2.1"/>
<path class="st1" d="M-298.5,144c0,0,25.3-17.1,48.6-5.6c0,0,20,8.7,30.8,0.8c5.3-3.9,6.2-11.5,2-16.5c-5-5.9-17.2-12.1-47.2-9.6
	c-0.6,0-1.2,0.1-1.7,0.3c-4.8,1.1-26.2,7.1-34.6,25c-0.6,1.2-1,2.4-1.1,3.7C-301.8,143.8-301.4,145.7-298.5,144z"/>
<line class="st1" x1="-242.1" y1="118.4" x2="-256.7" y2="130.7"/>
<line class="st1" x1="-235.1" y1="120.4" x2="-249.7" y2="132.7"/>
<line class="st1" x1="-228.1" y1="122.4" x2="-242.7" y2="134.7"/>
<path class="st1" d="M-214.3,130.7v17.9c0,0.3-0.1,0.5-0.2,0.8c-1.3,2.5-10,15.3-43.2,0.9c-0.1,0-0.1,0-0.2-0.1
	c-1.4-0.4-17.4-4.5-34.9,6.4c-0.1,0.1-0.2,0.1-0.2,0.2c-0.6,0.5-3.8,3.3-7.2,3.2c-0.9,0-1.5-0.8-1.5-1.6l0.2-14.2"/>
<ellipse transform="matrix(0.9634 -0.2681 0.2681 0.9634 -43.9085 -69.2763)" class="st1" cx="-275.6" cy="126.1" rx="6.2" ry="2.8"/>
<path class="st1" d="M-169.5,76.4h34c0,0,6.8,33.6-17,33.6S-169.5,76.4-169.5,76.4z"/>
<line class="st1" x1="-152.5" y1="110" x2="-152.5" y2="143"/>
<line class="st1" x1="-165.9" y1="143" x2="-139.2" y2="143"/>
<line class="st1" x1="-170" y1="91.3" x2="-134.9" y2="91.3"/>
</svg>
