<?xml version="1.0" encoding="utf-8"?>
<!-- Generator: Adobe Illustrator 19.1.0, SVG Export Plug-In . SVG Version: 6.00 Build 0)  -->
<!DOCTYPE svg PUBLIC "-//W3C//DTD SVG 1.1//EN" "http://www.w3.org/Graphics/SVG/1.1/DTD/svg11.dtd">
<svg version="1.1" id="Layer_1" xmlns="http://www.w3.org/2000/svg" xmlns:xlink="http://www.w3.org/1999/xlink" x="0px" y="0px"
	 viewBox="0 0 144 144" enable-background="new 0 0 144 144" xml:space="preserve">
<g>
	<path fill="none" stroke="#91A995" stroke-width="5" stroke-miterlimit="10" d="M3.2,115.8l6.6-87.6c0.1-1.5,1.4-2.7,2.9-2.7h67.4
		c1.3,0,2.4-0.8,2.8-2l0.8-2.3c0.4-1.2,1.5-2,2.8-2H123c1.6,0,2.9,1.3,2.9,2.9v0c0,1.6,1.3,2.9,2.9,2.9h1.8c1.8,0,3.2,1.6,2.9,3.4
		l-13.5,88c-0.2,1.4-1.5,2.5-2.9,2.5H6.2C4.5,118.9,3.1,117.5,3.2,115.8z"/>
	<path fill="#FFFFFF" stroke="#91A995" stroke-width="5" stroke-miterlimit="10" d="M3.9,112.1l12.5-50.5c0.8-3.4,3.9-5.8,7.5-5.8
		h57.3c1.9,0,3.7,0.7,5.1,1.9l2.9,2.6c1.4,1.2,3.2,1.9,5.1,1.9l39.6-0.3c5.6,0,9.3,5.6,7.1,10.7L121.6,117c-1.2,2.8-4,4.6-7,4.6
		H11.3C6.4,121.6,2.7,116.9,3.9,112.1z"/>
</g>
</svg>
