<?xml version="1.0" encoding="utf-8"?>
<!-- Generator: Adobe Illustrator 19.1.0, SVG Export Plug-In . SVG Version: 6.00 Build 0)  -->
<!DOCTYPE svg PUBLIC "-//W3C//DTD SVG 1.1//EN" "http://www.w3.org/Graphics/SVG/1.1/DTD/svg11.dtd">
<svg version="1.1" id="Layer_1" xmlns="http://www.w3.org/2000/svg" xmlns:xlink="http://www.w3.org/1999/xlink" x="0px" y="0px"
	 viewBox="0 0 144 144" enable-background="new 0 0 144 144" xml:space="preserve">
<g id="teI7UP.tif_2_">
	<g>
		<path fill="none" stroke="#91A995" stroke-width="3" stroke-miterlimit="10" d="M1.8,36c-0.1-14.1,8.3-16.1,20.7-16
			c9,0.1,18-0.1,27.1,0c2.6,0,6-0.7,6.1,3.6c0,3.9-0.6,7.5-5.4,8.3c-1.8,0.3-3.7,0.3-5.5,0.3c-7.7,0-15.5,0.1-23.2,0
			c-4.8-0.1-7.1,1.8-7.1,6.8c0.1,20.8,0.1,41.6,0,62.4c0,4.8,2.2,7,7.1,7c26.5-0.1,53-0.1,79.5,0c5.1,0,7.4-2.3,7.3-7.3
			c-0.1-4.4-0.1-8.8,0-13.3c0.2-4.8,4.4-8,9.1-8.1c1.2,0,2.9-0.5,2.9,2.6c0,7.5,0.2,16.1-0.7,23.6c-0.8,7.5-6.3,12.6-13.6,13.9
			c-2.9,0.5-5.8,0.7-8.8,0.7c-22.8,0.1-45.7-0.3-68.5,0.2c-13.3,0.3-27.1-0.3-27.1-17.3C1.8,81,1.8,58.5,1.8,36z"/>
		<path fill="none" stroke="#91A995" stroke-width="3" stroke-miterlimit="10" d="M101.6,72.6c-0.8,0.6-2,0-2-1c0-3.4,0-7.7,0-10.7
			c0.1-4-1.8-6-5.8-6.4c-19.6-2-37,3.3-52.6,15.3c-0.5,0.4-2.8,1.2-4.7,1.8c-1.1,0.3-2.1-0.7-1.8-1.8c0.5-2,1.7-4.3,2.2-5
			c6-7.7,9.1-13,16.1-19.6c10.8-10.3,24.1-16.5,38.7-20c7.7-1.9,8.2-2.2,8-10.6c-0.1-1.6,0-4.4,0.1-7.2c0.1-1.2,1.5-1.8,2.4-1
			c1.4,1.4,2.8,2.7,3.7,3.5c10.1,9.1,21.7,16.4,32.5,24.7c5.4,4.1,5.3,6.1,0.1,10c-10.8,8.2-21.7,16.5-32.5,24.7
			C105.1,69.9,103.1,71.5,101.6,72.6z"/>
	</g>
</g>
</svg>
